<svg width="36" height="36" viewBox="0 0 36 36" fill="none" xmlns="http://www.w3.org/2000/svg">
<circle cx="18" cy="18" r="18" fill="#A68144"/>
<path d="M17.9978 7.95319C15.2364 7.95319 12.9978 10.1918 12.9978 12.9532C12.9978 15.7146 15.2364 17.9532 17.9978 17.9532C20.7592 17.9532 22.9978 15.7146 22.9978 12.9532C22.9978 10.1918 20.7592 7.95319 17.9978 7.95319ZM14.4666 19.2657C11.8523 19.9802 9.9978 22.2534 9.9978 24.9532V26.9532C9.9978 27.5055 10.4455 27.9532 10.9978 27.9532H24.9978C25.5501 27.9532 25.9978 27.5055 25.9978 26.9532V24.9532C25.9978 22.2534 24.1433 19.9802 21.529 19.2657C21.3049 19.2044 21.0847 19.2327 20.8728 19.3282C19.9573 19.7408 18.9827 19.9532 17.9978 19.9532C17.0129 19.9532 16.0383 19.7408 15.1228 19.3282C14.9109 19.2327 14.6907 19.2044 14.4666 19.2657Z" fill="white"/>
</svg>
